<?xml version="1.0" encoding="UTF-8" standalone="no"?>
<!-- Created with Inkscape (http://www.inkscape.org/) -->

<svg
   width="1024"
   height="512"
   viewBox="0 0 270.93333 135.46667"
   version="1.1"
   id="svg1"
   xml:space="preserve"
   inkscape:version="1.3.2 (091e20ef0f, 2023-11-25)"
   sodipodi:docname="ego-blue-name.svg"
   inkscape:export-filename="icon-green.svg"
   inkscape:export-xdpi="24"
   inkscape:export-ydpi="24"
   xmlns:inkscape="http://www.inkscape.org/namespaces/inkscape"
   xmlns:sodipodi="http://sodipodi.sourceforge.net/DTD/sodipodi-0.dtd"
   xmlns="http://www.w3.org/2000/svg"
   xmlns:svg="http://www.w3.org/2000/svg"><sodipodi:namedview
     id="namedview1"
     pagecolor="#505050"
     bordercolor="#eeeeee"
     borderopacity="1"
     inkscape:showpageshadow="0"
     inkscape:pageopacity="0"
     inkscape:pagecheckerboard="0"
     inkscape:deskcolor="#505050"
     inkscape:document-units="mm"
     inkscape:zoom="0.31099869"
     inkscape:cx="623.79684"
     inkscape:cy="-48.231714"
     inkscape:window-width="960"
     inkscape:window-height="972"
     inkscape:window-x="960"
     inkscape:window-y="36"
     inkscape:window-maximized="0"
     inkscape:current-layer="layer1"
     showguides="true" /><defs
     id="defs1" /><g
     inkscape:label="Layer 1"
     inkscape:groupmode="layer"
     id="layer1"
     transform="translate(-1620.4832,88.171746)"><g
       id="g1"
       transform="translate(377.53952,22.506179)"><g
         id="g72"><path
           id="path52"
           style="fill:#262626;fill-opacity:1;stroke-width:0.661458;stroke-linejoin:round;stroke-miterlimit:0"
           d="m 1264.1107,-110.67793 v 16.933334 42.333338 16.93333 42.33334 16.93333 h 16.9338 50.7995 V 7.855412 h -50.7995 v -42.33334 h 33.8667 v -16.93333 h -33.8667 v -42.333338 h 50.7995 v -16.933334 z" /><path
           id="path55"
           style="fill:#5a8ed6;fill-opacity:1;stroke-width:0.661458;stroke-linejoin:round;stroke-miterlimit:0"
           d="m 1255.6438,-110.67793 v 16.933334 42.333338 16.93333 42.33334 16.93333 h 16.9338 50.7995 V 7.855412 h -50.7995 v -42.33334 h 33.8667 v -16.93333 h -33.8667 v -42.333338 h 50.7995 v -16.933334 z" /></g><g
         id="g69"><path
           id="path53"
           style="fill:#262626;fill-opacity:1;stroke-width:0.661458;stroke-linejoin:round;stroke-miterlimit:0"
           d="M 1348.7769,-110.67794 V 24.788732 h 5e-4 16.9333 33.8667 16.9333 v -16.93333 -59.26667 h -33.8672 v 16.93333 h 16.9339 v 42.33334 h -33.8667 V -93.744596 h 50.8 v -16.933344 h -50.8 z" /><path
           id="path56"
           style="fill:#4d4d4d;fill-opacity:1;stroke-width:0.661458;stroke-linejoin:round;stroke-miterlimit:0"
           d="M 1340.31,-110.67794 V 24.788732 h 5e-4 16.9333 33.8667 16.9333 v -16.93333 -59.26667 h -33.8672 v 16.93333 h 16.9339 v 42.33334 h -33.8667 V -93.744596 h 50.8 v -16.933344 h -50.8 z" /></g><g
         id="g68"><path
           id="path54"
           style="fill:#262626;fill-opacity:1;stroke-width:0.661458;stroke-linejoin:round;stroke-miterlimit:0"
           d="M 1433.4431,-110.67793 V 24.788742 h 5e-4 16.9328 33.8667 16.9338 V 7.855412 -110.67793 h -50.8005 z m 16.9333,16.933334 h 33.8667 V 7.855412 h -33.8667 z" /><path
           id="path57"
           style="fill:#4d4d4d;fill-opacity:1;stroke-width:0.661458;stroke-linejoin:round;stroke-miterlimit:0"
           d="M 1424.9762,-110.67793 V 24.788742 h 5e-4 16.9328 33.8667 16.9338 V 7.855412 -110.67793 h -50.8005 z m 16.9333,16.933334 h 33.8667 V 7.855412 h -33.8667 z" /></g></g></g></svg>
