<?xml version="1.0" encoding="UTF-8" standalone="no"?>
<!-- Created with Inkscape (http://www.inkscape.org/) -->

<svg
   width="1023.9999"
   height="1025"
   viewBox="0 0 270.93331 271.19791"
   version="1.1"
   id="svg1"
   xml:space="preserve"
   inkscape:version="1.3.2 (091e20ef0f, 2023-11-25)"
   sodipodi:docname="ego-blue-human.svg"
   inkscape:export-filename="icon-green.svg"
   inkscape:export-xdpi="24"
   inkscape:export-ydpi="24"
   xmlns:inkscape="http://www.inkscape.org/namespaces/inkscape"
   xmlns:sodipodi="http://sodipodi.sourceforge.net/DTD/sodipodi-0.dtd"
   xmlns="http://www.w3.org/2000/svg"
   xmlns:svg="http://www.w3.org/2000/svg"><sodipodi:namedview
     id="namedview1"
     pagecolor="#505050"
     bordercolor="#eeeeee"
     borderopacity="1"
     inkscape:showpageshadow="0"
     inkscape:pageopacity="0"
     inkscape:pagecheckerboard="0"
     inkscape:deskcolor="#505050"
     inkscape:document-units="mm"
     inkscape:zoom="0.64518122"
     inkscape:cx="427.01181"
     inkscape:cy="472.7354"
     inkscape:window-width="1920"
     inkscape:window-height="972"
     inkscape:window-x="0"
     inkscape:window-y="36"
     inkscape:window-maximized="1"
     inkscape:current-layer="layer1" /><defs
     id="defs1"><clipPath
       clipPathUnits="userSpaceOnUse"
       id="clipPath5"><path
         style="fill:#454545;fill-opacity:1;stroke:none;stroke-width:2.11667;stroke-linejoin:round;stroke-miterlimit:0;stroke-opacity:1"
         d="m 55.624558,143.29294 h 40.829418 l 15.577504,-33.05265 15.35838,12.10154 35.00796,-1.86962 4.91308,19.7465 16.82699,-9.63642 31.25183,-0.88503 2.6745,80.53757 -160.046053,0.42169 z"
         id="path6" /></clipPath><clipPath
       clipPathUnits="userSpaceOnUse"
       id="clipPath13"><rect
         style="fill:#d65a5a;fill-opacity:1;stroke:none;stroke-width:2.11667;stroke-linejoin:round;stroke-miterlimit:0;stroke-opacity:1"
         id="rect14"
         width="48.958195"
         height="55.927677"
         x="-11.9"
         y="343.73721" /></clipPath></defs><g
     inkscape:label="Layer 1"
     inkscape:groupmode="layer"
     id="layer1"
     transform="translate(-361.46793,-149.56629)"><g
       id="g4"><g
         id="g3"><path
           style="fill:#262626;fill-opacity:1"
           d="m 8.8606049,386.13397 c -0.031844,-0.41902 -0.3576883,-0.57742 -1.12125,-0.41478 -3.0306111,0.43564 -9.0108966,0.51744 -9.57421,-1.10448 -0.5633134,-1.62192 1.01665129,-3.5481 0.67222,-4.00059 l -0.67106,-0.88159 -0.67106,-0.88159 0.51355,-1.14627 -0.82127,-1.17252 c 0.136754,-0.43174 1.1512641,-1.07583 0.63509,-1.50603 -0.9350645,-0.41799 -2.3717495,0.0964 -3.0499,-0.85715 -0.6781505,-0.9535 0.1833174,-1.52966 0.88746,-2.52731 0.98258,-1.39215 3.87504001,-6.46215 3.87504001,-6.79229 0,-0.11525 -0.38797351,-0.5626 -0.66972001,-1.00546 -0.2817465,-0.44286 -0.6128927,-0.87398 -0.50357,-1.36112 0.1093227,-0.48714 0.71188001,-2.11299 1.37889001,-4.00477 4.89669849,-13.88804 25.04867709,-14.62971 29.95470009,1.05863 3.123438,9.48449 -3.408134,15.15357 -5.39858,23.54792 -0.579019,2.44191 -0.132748,4.53552 0.36365,6.76279 0.418252,1.85657 1.084339,2.69903 1.084339,2.69903 H 8.6319849 Z"
           id="path36"
           clip-path="url(#clipPath13)"
           transform="matrix(5.710902,0,0,5.710902,425.39455,-1821.0298)"
           sodipodi:nodetypes="cczsccccszsszzssscccc" /><g
           id="g2"><circle
             style="fill:#262626;fill-opacity:1;stroke:none;stroke-width:2.65389;stroke-linejoin:round;stroke-miterlimit:0;stroke-opacity:1"
             id="circle42"
             cx="509.81967"
             cy="257.15723"
             r="83.758232" /><g
             id="g1"><circle
               style="fill:#4780d0;fill-opacity:1;stroke:none;stroke-width:1.91282;stroke-linejoin:round;stroke-miterlimit:0;stroke-opacity:1"
               id="circle43"
               cx="135.46666"
               cy="143.29294"
               r="60.369621"
               clip-path="url(#clipPath5)"
               transform="matrix(1.3124419,0,0,1.3124419,332.02753,69.093566)" /><path
               id="path43"
               style="fill:#5a8ed6;fill-opacity:1;stroke:none;stroke-width:2.77801;stroke-linejoin:round;stroke-miterlimit:0;stroke-opacity:1"
               d="m 503.1785,149.56931 c -4.63224,0.41274 -58.80442,42.90422 -50.50931,93.53919 0,0 -12.52784,-6.53844 -13.84661,-21.40881 0,0 -20.06371,35.46214 2.45517,73.87817 37.23486,-13.39293 20.35271,-51.44046 44.78715,-68.04137 0,0 -0.11143,24.37179 19.50297,34.1587 0,0 5.36613,-25.13449 24.77686,-25.75485 1.17231,32.56094 30.93397,57.27038 36.93874,21.65229 7.82552,6.70946 13.24241,16.06316 13.92257,33.45946 4.6499,-10.01317 7.87111,-22.40148 7.84501,-37.51118 0,0 0.24201,-25.9722 -15.20374,-40.1854 0,0 -1.72775,11.22551 -7.70054,13.74013 0,0 -33.32039,-16.90338 -27.45651,-51.36727 0,0 -20.04819,3.82489 -30.97174,26.24792 0,0 -19.42285,-21.85988 -4.24974,-52.31406 -0.0425,-0.0754 -0.14086,-0.10623 -0.29028,-0.0929 z" /></g></g></g><rect
         style="fill:#262626;fill-opacity:0;stroke:none;stroke-width:2.11667;stroke-linejoin:round;stroke-miterlimit:0;stroke-opacity:1"
         id="rect59"
         width="270.93332"
         height="270.93332"
         x="361.46793"
         y="149.83089" /></g></g></svg>
