<?xml version="1.0" encoding="UTF-8" standalone="no"?>
<!-- Created with Inkscape (http://www.inkscape.org/) -->

<svg
   width="1023.9999"
   height="1025"
   viewBox="0 0 270.93331 271.19791"
   version="1.1"
   id="svg1"
   xml:space="preserve"
   inkscape:version="1.3.2 (091e20ef0f, 2023-11-25)"
   sodipodi:docname="icons.svg"
   inkscape:export-filename="icon-green.svg"
   inkscape:export-xdpi="24"
   inkscape:export-ydpi="24"
   xmlns:inkscape="http://www.inkscape.org/namespaces/inkscape"
   xmlns:sodipodi="http://sodipodi.sourceforge.net/DTD/sodipodi-0.dtd"
   xmlns="http://www.w3.org/2000/svg"
   xmlns:svg="http://www.w3.org/2000/svg"><sodipodi:namedview
     id="namedview1"
     pagecolor="#505050"
     bordercolor="#eeeeee"
     borderopacity="1"
     inkscape:showpageshadow="0"
     inkscape:pageopacity="0"
     inkscape:pagecheckerboard="0"
     inkscape:deskcolor="#505050"
     inkscape:document-units="mm"
     inkscape:zoom="0.098679843"
     inkscape:cx="2432.1076"
     inkscape:cy="-466.15396"
     inkscape:window-width="1920"
     inkscape:window-height="972"
     inkscape:window-x="0"
     inkscape:window-y="36"
     inkscape:window-maximized="1"
     inkscape:current-layer="layer1" /><defs
     id="defs1"><clipPath
       clipPathUnits="userSpaceOnUse"
       id="clipPath5"><path
         style="fill:#454545;fill-opacity:1;stroke:none;stroke-width:2.11667;stroke-linejoin:round;stroke-miterlimit:0;stroke-opacity:1"
         d="m 55.624558,143.29294 h 40.829418 l 15.577504,-33.05265 15.35838,12.10154 35.00796,-1.86962 4.91308,19.7465 16.82699,-9.63642 31.25183,-0.88503 2.6745,80.53757 -160.046053,0.42169 z"
         id="path6" /></clipPath><clipPath
       clipPathUnits="userSpaceOnUse"
       id="clipPath13"><rect
         style="fill:#d65a5a;fill-opacity:1;stroke:none;stroke-width:2.11667;stroke-linejoin:round;stroke-miterlimit:0;stroke-opacity:1"
         id="rect14"
         width="48.958195"
         height="55.927677"
         x="-11.9"
         y="343.73721" /></clipPath></defs><g
     inkscape:label="Layer 1"
     inkscape:groupmode="layer"
     id="layer1"
     transform="translate(-361.46793,-149.56629)"><g
       id="g59"
       transform="translate(361.46793,149.83089)"><g
         id="g48"
         transform="translate(-1.0828142e-6,-271.19794)"><path
           style="fill:#262626;fill-opacity:1"
           d="m 8.8606049,386.13397 c -0.031844,-0.41902 -0.3576883,-0.57742 -1.12125,-0.41478 -3.0306111,0.43564 -9.0108966,0.51744 -9.57421,-1.10448 -0.5633134,-1.62192 1.01665129,-3.5481 0.67222,-4.00059 l -0.67106,-0.88159 -0.67106,-0.88159 0.51355,-1.14627 -0.82127,-1.17252 c 0.136754,-0.43174 1.1512641,-1.07583 0.63509,-1.50603 -0.9350645,-0.41799 -2.3717495,0.0964 -3.0499,-0.85715 -0.6781505,-0.9535 0.1833174,-1.52966 0.88746,-2.52731 0.98258,-1.39215 3.87504001,-6.46215 3.87504001,-6.79229 0,-0.11525 -0.38797351,-0.5626 -0.66972001,-1.00546 -0.2817465,-0.44286 -0.6128927,-0.87398 -0.50357,-1.36112 0.1093227,-0.48714 0.71188001,-2.11299 1.37889001,-4.00477 4.89669849,-13.88804 25.04867709,-14.62971 29.95470009,1.05863 3.123438,9.48449 -3.408134,15.15357 -5.39858,23.54792 -0.579019,2.44191 -0.132748,4.53552 0.36365,6.76279 0.418252,1.85657 1.084339,2.69903 1.084339,2.69903 H 8.6319849 Z"
           id="path36"
           clip-path="url(#clipPath13)"
           transform="matrix(5.710902,0,0,5.710902,63.926623,-1699.6627)"
           sodipodi:nodetypes="cczsccccszsszzssscccc" /><g
           id="g44"
           transform="matrix(0.70625921,0,0,0.70625921,-316.08295,53.441223)"><circle
             style="fill:#262626;fill-opacity:1;stroke:none;stroke-width:3.75767;stroke-linejoin:round;stroke-miterlimit:0;stroke-opacity:1"
             id="circle42"
             cx="657.59808"
             cy="460.28857"
             r="118.59418" /><g
             id="g43"><circle
               style="fill:#3fc096;fill-opacity:1;stroke:none;stroke-width:1.91282;stroke-linejoin:round;stroke-miterlimit:0;stroke-opacity:1"
               id="circle43"
               cx="135.46666"
               cy="143.29294"
               r="60.369621"
               clip-path="url(#clipPath5)"
               transform="matrix(1.8583006,0,0,1.8583006,405.86026,194.00723)" /><path
               id="path43"
               style="fill:#66ccaa;fill-opacity:1;stroke:none;stroke-width:3.93341;stroke-linejoin:round;stroke-miterlimit:0;stroke-opacity:1"
               d="m 648.19476,307.9537 c -6.55884,0.58441 -83.26181,60.74855 -71.51668,132.44314 0,0 -17.7383,-9.25785 -19.60556,-30.31296 0,0 -28.40842,50.21123 3.47631,104.6049 52.72123,-18.9632 28.81761,-72.83511 63.4146,-96.34051 0,0 -0.15777,34.50828 27.61447,48.36567 0,0 7.59796,-35.5882 35.08182,-36.46657 1.65989,46.10338 43.79974,81.08974 52.30196,30.65771 11.08023,9.5 18.75007,22.744 19.71312,47.37561 6.58383,-14.17776 11.14478,-31.7185 11.10782,-53.11248 0,0 0.34267,-36.77432 -21.52713,-56.89894 0,0 -2.44634,15.89431 -10.90328,19.45479 0,0 -47.1787,-23.93368 -38.87597,-72.73146 0,0 -28.38645,5.41569 -43.85321,37.1647 0,0 -27.50103,-30.95163 -6.01726,-74.07204 -0.0602,-0.10676 -0.19945,-0.15041 -0.41101,-0.13157 z" /></g></g></g><rect
         style="fill:#262626;fill-opacity:0;stroke:none;stroke-width:2.11667;stroke-linejoin:round;stroke-miterlimit:0;stroke-opacity:1"
         id="rect59"
         width="270.93332"
         height="270.93332"
         x="7.1207683e-06"
         y="0" /></g></g></svg>
