<?xml version="1.0" encoding="UTF-8" standalone="no"?>
<!-- Created with Inkscape (http://www.inkscape.org/) -->

<svg
   width="1024"
   height="512"
   viewBox="0 0 270.93333 135.46667"
   version="1.1"
   id="svg1"
   xml:space="preserve"
   inkscape:version="1.3.2 (091e20ef0f, 2023-11-25)"
   sodipodi:docname="ego-grey-name.svg"
   inkscape:export-filename="icon-green.svg"
   inkscape:export-xdpi="24"
   inkscape:export-ydpi="24"
   xmlns:inkscape="http://www.inkscape.org/namespaces/inkscape"
   xmlns:sodipodi="http://sodipodi.sourceforge.net/DTD/sodipodi-0.dtd"
   xmlns="http://www.w3.org/2000/svg"
   xmlns:svg="http://www.w3.org/2000/svg"><sodipodi:namedview
     id="namedview1"
     pagecolor="#505050"
     bordercolor="#eeeeee"
     borderopacity="1"
     inkscape:showpageshadow="0"
     inkscape:pageopacity="0"
     inkscape:pagecheckerboard="0"
     inkscape:deskcolor="#505050"
     inkscape:document-units="mm"
     inkscape:zoom="0.31099869"
     inkscape:cx="598.07326"
     inkscape:cy="607.7196"
     inkscape:window-width="960"
     inkscape:window-height="972"
     inkscape:window-x="960"
     inkscape:window-y="36"
     inkscape:window-maximized="0"
     inkscape:current-layer="layer1"
     showguides="true" /><defs
     id="defs1" /><g
     inkscape:label="Layer 1"
     inkscape:groupmode="layer"
     id="layer1"
     transform="translate(-1620.4832,88.171746)"><g
       id="g74"
       transform="translate(377.53952,-292.52118)" /><g
       id="g1"
       transform="translate(377.53952,180.01986)"><g
         id="g73"><path
           id="path63"
           style="fill:#262626;fill-opacity:1;stroke-width:0.661458;stroke-linejoin:round;stroke-miterlimit:0"
           d="m 1264.1107,-268.19161 v 16.93333 42.33334 16.93333 42.33334 16.93333 h 16.9338 50.7995 v -16.93333 h -50.7995 v -42.33334 h 33.8667 v -16.93333 h -33.8667 v -42.33334 h 50.7995 v -16.93333 z" /><path
           id="path66"
           style="fill:#bfbfbf;fill-opacity:1;stroke-width:0.661458;stroke-linejoin:round;stroke-miterlimit:0"
           d="m 1255.6438,-268.19161 v 16.93333 42.33334 16.93333 42.33334 16.93333 h 16.9338 50.7995 v -16.93333 h -50.7995 v -42.33334 h 33.8667 v -16.93333 h -33.8667 v -42.33334 h 50.7995 v -16.93333 z" /></g><g
         id="g71"><path
           id="path64"
           style="fill:#262626;fill-opacity:1;stroke-width:0.661458;stroke-linejoin:round;stroke-miterlimit:0"
           d="m 1348.7769,-268.19162 v 135.46667 h 5e-4 16.9333 33.8667 16.9333 v -16.93333 -59.26667 h -33.8672 v 16.93333 h 16.9339 v 42.33334 h -33.8667 v -101.6 h 50.8 v -16.93334 h -50.8 z" /><path
           id="path67"
           style="fill:#4d4d4d;fill-opacity:1;stroke-width:0.661458;stroke-linejoin:round;stroke-miterlimit:0"
           d="m 1340.31,-268.19162 v 135.46667 h 5e-4 16.9333 33.8667 16.9333 v -16.93333 -59.26667 h -33.8672 v 16.93333 h 16.9339 v 42.33334 h -33.8667 v -101.6 h 50.8 v -16.93334 h -50.8 z" /></g><g
         id="g70"><path
           id="path65"
           style="fill:#262626;fill-opacity:1;stroke-width:0.661458;stroke-linejoin:round;stroke-miterlimit:0"
           d="m 1433.4431,-268.19161 v 135.46667 h 5e-4 16.9328 33.8667 16.9338 v -16.93333 -118.53334 h -50.8005 z m 16.9333,16.93333 h 33.8667 v 101.60001 h -33.8667 z" /><path
           id="path68"
           style="fill:#4d4d4d;fill-opacity:1;stroke-width:0.661458;stroke-linejoin:round;stroke-miterlimit:0"
           d="m 1424.9762,-268.19161 v 135.46667 h 5e-4 16.9328 33.8667 16.9338 v -16.93333 -118.53334 h -50.8005 z m 16.9333,16.93333 h 33.8667 v 101.60001 h -33.8667 z" /></g></g></g></svg>
