<?xml version="1.0" encoding="UTF-8" standalone="no"?>
<!-- Created with Inkscape (http://www.inkscape.org/) -->

<svg
   width="1023.9999"
   height="1023.9999"
   viewBox="0 0 270.93331 270.93331"
   version="1.1"
   id="svg1"
   xml:space="preserve"
   inkscape:version="1.3.2 (091e20ef0f, 2023-11-25)"
   sodipodi:docname="ego-red-flame.svg"
   inkscape:export-filename="icon-green.svg"
   inkscape:export-xdpi="24"
   inkscape:export-ydpi="24"
   xmlns:inkscape="http://www.inkscape.org/namespaces/inkscape"
   xmlns:sodipodi="http://sodipodi.sourceforge.net/DTD/sodipodi-0.dtd"
   xmlns="http://www.w3.org/2000/svg"
   xmlns:svg="http://www.w3.org/2000/svg"><sodipodi:namedview
     id="namedview1"
     pagecolor="#505050"
     bordercolor="#eeeeee"
     borderopacity="1"
     inkscape:showpageshadow="0"
     inkscape:pageopacity="0"
     inkscape:pagecheckerboard="0"
     inkscape:deskcolor="#505050"
     inkscape:document-units="mm"
     inkscape:zoom="0.45419463"
     inkscape:cx="-516.29848"
     inkscape:cy="565.83672"
     inkscape:window-width="1920"
     inkscape:window-height="972"
     inkscape:window-x="0"
     inkscape:window-y="36"
     inkscape:window-maximized="1"
     inkscape:current-layer="g18393" /><defs
     id="defs1"><clipPath
       clipPathUnits="userSpaceOnUse"
       id="clipPath5"><path
         style="fill:#454545;fill-opacity:1;stroke:none;stroke-width:2.11667;stroke-linejoin:round;stroke-miterlimit:0;stroke-opacity:1"
         d="m 55.624558,143.29294 h 40.829418 l 15.577504,-33.05265 15.35838,12.10154 35.00796,-1.86962 4.91308,19.7465 16.82699,-9.63642 31.25183,-0.88503 2.6745,80.53757 -160.046053,0.42169 z"
         id="path6" /></clipPath></defs><g
     inkscape:label="Layer 1"
     inkscape:groupmode="layer"
     id="layer1"
     transform="translate(56.701035,410.92701)"><g
       id="g18393"
       transform="translate(-56.701053,-410.927)"><g
         id="g18392"
         transform="translate(-518.80164,-1.223817e-5)"><circle
           style="fill:#262626;fill-opacity:1;stroke:none;stroke-width:3.75767;stroke-linejoin:round;stroke-miterlimit:0;stroke-opacity:1"
           id="circle18390"
           cx="654.26831"
           cy="152.33916"
           r="118.59418" /><g
           id="g18391"
           transform="matrix(1.8583006,0,0,1.8583006,402.53052,-113.9422)"><circle
             style="fill:#d04747;fill-opacity:1;stroke:none;stroke-width:1.91282;stroke-linejoin:round;stroke-miterlimit:0;stroke-opacity:1"
             id="circle18391"
             cx="135.46666"
             cy="143.29294"
             r="60.369621"
             clip-path="url(#clipPath5)" /><path
             id="path18391"
             style="fill:#d65a5a;fill-opacity:1;stroke:none;stroke-width:2.11667;stroke-linejoin:round;stroke-miterlimit:0;stroke-opacity:1"
             d="m 130.40651,61.317564 c -3.52948,0.31449 -44.80535,32.690382 -38.48499,71.271106 0,0 -9.54544,-4.98189 -10.55026,-16.31219 0,0 -15.28731,27.01997 1.87069,56.29062 28.37067,-10.20459 15.50751,-39.19447 34.12505,-51.84334 0,0 -0.0849,18.56981 14.86007,26.02683 0,0 4.08866,-19.15094 18.87844,-19.62361 0.89323,24.80943 23.56978,43.6365 28.14505,16.49771 5.96256,5.1122 10.0899,12.23914 10.60814,25.49405 3.54293,-7.62942 5.9973,-17.06855 5.97741,-28.58121 0,0 0.1844,-19.78922 -11.58431,-30.6188 0,0 -1.31644,8.55314 -5.86734,10.46913 0,0 -25.38809,-12.87934 -20.92017,-39.138696 0,0 -15.27549,2.914326 -23.59856,19.999296 0,0 -14.79902,-16.655881 -3.23804,-39.860099 -0.0324,-0.05745 -0.10733,-0.08094 -0.22118,-0.0708 z" /></g></g><rect
         style="fill:#262626;fill-opacity:0;stroke:none;stroke-width:2.11667;stroke-linejoin:round;stroke-miterlimit:0;stroke-opacity:1"
         id="rect18392"
         width="270.93332"
         height="270.93332"
         x="1.4693247e-05"
         y="-7.8664252e-06" /></g></g></svg>
