<?xml version="1.0" encoding="UTF-8" standalone="no"?>
<!-- Created with Inkscape (http://www.inkscape.org/) -->

<svg
   width="1023.9998"
   height="1023.9999"
   viewBox="0 0 270.93328 270.93331"
   version="1.1"
   id="svg1"
   xml:space="preserve"
   inkscape:version="1.3.2 (091e20ef0f, 2023-11-25)"
   sodipodi:docname="icons.svg"
   inkscape:export-filename="icon-green.svg"
   inkscape:export-xdpi="24"
   inkscape:export-ydpi="24"
   xmlns:inkscape="http://www.inkscape.org/namespaces/inkscape"
   xmlns:sodipodi="http://sodipodi.sourceforge.net/DTD/sodipodi-0.dtd"
   xmlns="http://www.w3.org/2000/svg"
   xmlns:svg="http://www.w3.org/2000/svg"><sodipodi:namedview
     id="namedview1"
     pagecolor="#505050"
     bordercolor="#eeeeee"
     borderopacity="1"
     inkscape:showpageshadow="0"
     inkscape:pageopacity="0"
     inkscape:pagecheckerboard="0"
     inkscape:deskcolor="#505050"
     inkscape:document-units="mm"
     inkscape:zoom="0.098679843"
     inkscape:cx="2432.1076"
     inkscape:cy="-466.15396"
     inkscape:window-width="1920"
     inkscape:window-height="972"
     inkscape:window-x="0"
     inkscape:window-y="36"
     inkscape:window-maximized="1"
     inkscape:current-layer="layer1" /><defs
     id="defs1"><clipPath
       clipPathUnits="userSpaceOnUse"
       id="clipPath5"><path
         style="fill:#454545;fill-opacity:1;stroke:none;stroke-width:2.11667;stroke-linejoin:round;stroke-miterlimit:0;stroke-opacity:1"
         d="m 55.624558,143.29294 h 40.829418 l 15.577504,-33.05265 15.35838,12.10154 35.00796,-1.86962 4.91308,19.7465 16.82699,-9.63642 31.25183,-0.88503 2.6745,80.53757 -160.046053,0.42169 z"
         id="path6" /></clipPath><clipPath
       clipPathUnits="userSpaceOnUse"
       id="clipPath13"><rect
         style="fill:#d65a5a;fill-opacity:1;stroke:none;stroke-width:2.11667;stroke-linejoin:round;stroke-miterlimit:0;stroke-opacity:1"
         id="rect14"
         width="48.958195"
         height="55.927677"
         x="-11.9"
         y="343.73721" /></clipPath></defs><g
     inkscape:label="Layer 1"
     inkscape:groupmode="layer"
     id="layer1"
     transform="translate(-361.46796,135.46668)"><g
       id="g49"
       transform="translate(361.46794,-135.46667)"><rect
         style="fill:#262626;fill-opacity:0;stroke:none;stroke-width:2.11667;stroke-linejoin:round;stroke-miterlimit:0;stroke-opacity:1"
         id="rect48"
         width="270.93332"
         height="270.93332"
         x="0"
         y="0" /><g
         id="g19"
         transform="matrix(1.7430116,0,0,1.7430116,12.90909,-69.175448)"><path
           style="fill:#262626;fill-opacity:1"
           d="m 8.8606049,386.13397 c -0.031844,-0.41902 -0.3576883,-0.57742 -1.12125,-0.41478 -3.0306111,0.43564 -9.0108966,0.51744 -9.57421,-1.10448 -0.5633134,-1.62192 1.01665129,-3.5481 0.67222,-4.00059 l -0.67106,-0.88159 -0.67106,-0.88159 0.51355,-1.14627 -0.82127,-1.17252 c 0.136754,-0.43174 1.1512641,-1.07583 0.63509,-1.50603 -0.9350645,-0.41799 -2.3717495,0.0964 -3.0499,-0.85715 -0.6781505,-0.9535 0.1833174,-1.52966 0.88746,-2.52731 0.98258,-1.39215 3.87504001,-6.46215 3.87504001,-6.79229 0,-0.11525 -0.38797351,-0.5626 -0.66972001,-1.00546 -0.2817465,-0.44286 -0.6128927,-0.87398 -0.50357,-1.36112 0.1093227,-0.48714 0.71188001,-2.11299 1.37889001,-4.00477 4.89669849,-13.88804 25.04867709,-14.62971 29.95470009,1.05863 3.123438,9.48449 -3.408134,15.15357 -5.39858,23.54792 -0.579019,2.44191 -0.132748,4.53552 0.36365,6.76279 0.418252,1.85657 1.084339,2.69903 1.084339,2.69903 H 8.6319849 Z"
           id="path17"
           clip-path="url(#clipPath13)"
           transform="matrix(3.2696543,0,0,3.2696543,29.354974,-1088.3639)"
           sodipodi:nodetypes="cczsccccszsszzssscccc" /><g
           id="g18"
           transform="matrix(0.75297374,0,0,0.75297374,23.756997,-6.2745915)"><circle
             style="fill:#262626;fill-opacity:1;stroke:none;stroke-width:2.0221;stroke-linejoin:round;stroke-miterlimit:0;stroke-opacity:1"
             id="circle15"
             cx="71.648048"
             cy="143.01819"
             r="63.818619" /><g
             id="g16"
             transform="translate(-63.818612,-0.27475219)"><circle
               style="fill:#d04747;fill-opacity:1;stroke:none;stroke-width:1.91282;stroke-linejoin:round;stroke-miterlimit:0;stroke-opacity:1"
               id="circle16"
               cx="135.46666"
               cy="143.29294"
               r="60.369621"
               clip-path="url(#clipPath5)" /><path
               id="path16"
               style="fill:#d65a5a;fill-opacity:1;stroke:none;stroke-width:2.11667;stroke-linejoin:round;stroke-miterlimit:0;stroke-opacity:1"
               d="m 130.40651,61.317564 c -3.52948,0.31449 -44.80535,32.690382 -38.48499,71.271106 0,0 -9.54544,-4.98189 -10.55026,-16.31219 0,0 -15.28731,27.01997 1.87069,56.29062 28.37067,-10.20459 15.50751,-39.19447 34.12505,-51.84334 0,0 -0.0849,18.56981 14.86007,26.02683 0,0 4.08866,-19.15094 18.87844,-19.62361 0.89323,24.80943 23.56978,43.6365 28.14505,16.49771 5.96256,5.1122 10.0899,12.23914 10.60814,25.49405 3.54293,-7.62942 5.9973,-17.06855 5.97741,-28.58121 0,0 0.1844,-19.78922 -11.58431,-30.6188 0,0 -1.31644,8.55314 -5.86734,10.46913 0,0 -25.38809,-12.87934 -20.92017,-39.138696 0,0 -15.27549,2.914326 -23.59856,19.999296 0,0 -14.79902,-16.655881 -3.23804,-39.860099 -0.0324,-0.05745 -0.10733,-0.08094 -0.22118,-0.0708 z" /></g></g></g></g></g></svg>
